<svg width="24" height="25" viewBox="0 0 24 25" fill="none" xmlns="http://www.w3.org/2000/svg">
<path d="M1.71436 12.4599C1.71436 14.1374 2.12619 15.7144 2.86949 17.1206L4.60721 15.3829C4.83824 15.1519 5.1898 15.1519 5.42083 15.3829C5.65186 15.6139 5.6619 15.9655 5.42083 16.2065L3.47217 18.1552C3.72328 18.5068 3.9744 18.8482 4.26569 19.1596L18.6697 4.76569C18.3482 4.4744 17.9967 4.21324 17.6552 3.97217L15.6865 5.94092C15.4554 6.17195 15.0938 6.1619 14.8628 5.94092C14.6318 5.70989 14.6318 5.35833 14.8628 5.11726L16.6106 3.37954C15.2144 2.62619 13.6273 2.21436 11.9498 2.21436C6.35498 2.21436 1.71436 6.85498 1.71436 12.4599ZM14.1496 7.47774L12.7735 8.85386C12.5425 9.08489 12.1808 9.07485 11.9498 8.85386C11.7289 8.62284 11.7188 8.25119 11.9498 8.03021L13.336 6.65409C13.567 6.43311 13.9286 6.42306 14.1496 6.65409C14.3806 6.88512 14.3806 7.24672 14.1496 7.47774ZM11.2467 10.3907L9.86056 11.7668C9.63958 11.9878 9.27797 11.9878 9.04695 11.7668C8.81592 11.5358 8.81592 11.1742 9.04695 10.9432L10.4231 9.56703C10.6541 9.336 11.0157 9.336 11.2467 9.56703C11.4677 9.78802 11.4777 10.1697 11.2467 10.3907ZM8.33378 13.2936L6.96771 14.6697C6.72664 14.9008 6.37507 14.8907 6.14404 14.6697C5.91302 14.4387 5.91302 14.0872 6.14404 13.8561L7.51012 12.4699C7.74114 12.2389 8.10274 12.2489 8.33378 12.4699C8.55476 12.701 8.57485 13.0625 8.33378 13.2936ZM11.9599 22.7054C17.5648 22.7054 22.2054 18.0548 22.2054 12.4599C22.2054 10.7925 21.7936 9.20543 21.0503 7.80922L19.3125 9.5369C19.0715 9.77797 18.73 9.76793 18.4989 9.5369C18.278 9.30588 18.2579 8.95431 18.4989 8.71324L20.4476 6.77462C20.2065 6.42306 19.9554 6.08154 19.6641 5.77016L5.26012 20.1641C5.58154 20.4454 5.92306 20.7065 6.26458 20.9476L8.23333 18.9789C8.4744 18.7277 8.82597 18.7479 9.05699 18.9789C9.28802 19.2099 9.29806 19.5514 9.05699 19.7925L7.29917 21.5503C8.70543 22.2836 10.2824 22.7054 11.9599 22.7054ZM17.7758 11.0637L16.4096 12.4498C16.1786 12.6808 15.817 12.6708 15.586 12.4498C15.365 12.2088 15.355 11.8572 15.586 11.6262L16.9622 10.2501C17.1932 10.019 17.5448 10.019 17.7758 10.2501C18.0168 10.4711 18.0068 10.8327 17.7758 11.0637ZM14.8729 13.9767L13.4967 15.3427C13.2657 15.5838 12.9041 15.5838 12.6731 15.3427C12.452 15.1217 12.442 14.7501 12.6731 14.5191L14.0592 13.153C14.2802 12.932 14.6519 12.932 14.8729 13.153C15.1039 13.384 15.1039 13.7356 14.8729 13.9767ZM11.9699 16.8796L10.5838 18.2556C10.3527 18.4767 10.0012 18.4867 9.77016 18.2556C9.53914 18.0246 9.53914 17.663 9.77016 17.432L11.1463 16.0558C11.3773 15.8248 11.7389 15.8449 11.9699 16.0558C12.191 16.297 12.201 16.6586 11.9699 16.8796Z" fill="#CBEA7B"/>
</svg>
