<svg width="148" height="34" viewBox="0 0 148 34" fill="none" xmlns="http://www.w3.org/2000/svg">
<path d="M12.91 10.3888C9.01722 6.60116 11.6987 0 17.1301 0C22.5614 0 25.2429 6.60116 21.3501 10.3888L17.1301 14.4947L12.91 10.3888Z" fill="#CBEA7B"/>
<path d="M12.9344 23.6112C9.04164 27.3988 11.7231 34 17.1545 34C22.5858 34 25.2673 27.3988 21.3745 23.6112L17.1545 19.5053L12.9344 23.6112Z" fill="#CBEA7B"/>
<path d="M10.5304 21.2321C6.74276 25.1249 0.141602 22.4434 0.141602 17.012C0.141602 11.5807 6.74277 8.89919 10.5304 12.792L14.6363 17.012L10.5304 21.2321Z" fill="#CBEA7B"/>
<path d="M23.7529 21.2077C27.5404 25.1005 34.1416 22.419 34.1416 16.9876C34.1416 11.5562 27.5404 8.87477 23.7528 12.7676L19.6469 16.9876L23.7529 21.2077Z" fill="#CBEA7B"/>
<path d="M49.2515 19.601V11.05H51.8355V22.95H48.1125L42.8935 14.416H42.6045V22.95H40.0205V11.05H43.5055V11.067H43.7435L48.9455 19.601H49.2515Z" fill="white"/>
<path d="M61.2365 13.413H63.8205V22.95H61.2365V21.556H61.1175C60.5055 22.406 59.6385 22.95 57.9215 22.95C53.8925 22.95 53.7905 19.584 53.7905 18.19V13.413H56.3575V18.19C56.3575 18.938 56.1875 20.74 58.6695 20.74C60.8965 20.74 61.2365 19.312 61.2365 18.02V13.413Z" fill="white"/>
<path d="M69.2945 15.623V19.006V19.21C69.2945 20.587 69.9065 20.4 72.3885 20.264V22.78C72.3885 22.78 71.8785 22.95 69.2945 22.95C66.6935 22.95 66.6935 20.825 66.6935 19.448V15.623H65.4355V13.447H66.6935V10.693H69.2945V13.447H72.3885V15.623H69.2945Z" fill="white"/>
<path d="M79.6666 13.413C80.3466 13.413 80.9076 13.566 81.3496 13.668L80.9416 16.099C80.7036 16.031 80.0406 15.895 79.2246 15.895C77.3036 15.895 76.7426 17.391 76.7426 18.683V22.95H74.1586V13.413H76.7426V14.824H76.8956C77.4396 13.906 78.0176 13.413 79.6666 13.413Z" fill="white"/>
<path d="M85.2993 22.95H82.7323V13.481H85.2993V22.95ZM85.2993 12.801H82.7323V10.489H85.2993V12.801Z" fill="white"/>
<path d="M90.9317 15.623V19.006V19.21C90.9317 20.587 91.5437 20.4 94.0257 20.264V22.78C94.0257 22.78 93.5157 22.95 90.9317 22.95C88.3307 22.95 88.3307 20.825 88.3307 19.448V15.623H87.0727V13.447H88.3307V10.693H90.9317V13.447H94.0257V15.623H90.9317Z" fill="white"/>
<path d="M98.313 22.95H95.746V13.481H98.313V22.95ZM98.313 12.801H95.746V10.489H98.313V12.801Z" fill="white"/>
<path d="M105.39 13.243C108.297 13.243 110.711 14.79 110.711 18.105C110.711 21.454 108.297 22.95 105.39 22.95C102.5 22.95 100.086 21.403 100.086 18.105C100.086 14.824 102.5 13.243 105.39 13.243ZM105.39 20.604C107.022 20.604 108.178 19.822 108.178 18.105C108.178 16.337 107.022 15.606 105.39 15.606C103.775 15.606 102.619 16.303 102.619 18.105C102.619 19.89 103.775 20.604 105.39 20.604Z" fill="white"/>
<path d="M118.344 13.413C122.373 13.413 122.475 16.796 122.475 18.19V22.95H119.908V18.19C119.908 17.442 120.061 15.64 117.596 15.64C115.352 15.64 115.029 17.068 115.029 18.36V22.95H112.445V13.413H115.029V14.824H115.148C115.76 13.974 116.627 13.413 118.344 13.413Z" fill="white"/>
<path d="M126.989 22.95H124.422V13.481H126.989V22.95ZM126.989 12.801H124.422V10.489H126.989V12.801Z" fill="white"/>
<path d="M133.662 17.17C135.821 17.493 138.269 17.867 138.269 20.128C138.269 22.491 136.569 22.95 133.645 22.95C131.486 22.95 130.007 22.559 129.242 21.794C128.579 21.131 128.579 20.332 128.596 19.839V19.652H131.248V19.737C131.248 20.553 131.86 20.927 133.577 20.927C134.614 20.927 135.6 20.791 135.6 20.162C135.6 19.448 134.682 19.312 133.645 19.193C133.509 19.176 133.373 19.159 133.237 19.142C130.5 18.785 128.8 18.173 128.8 16.269C128.8 14.943 129.565 13.362 133.237 13.362C137.181 13.362 138.014 15.113 138.014 16.575V16.66H135.379V16.575C135.379 15.827 134.733 15.419 133.237 15.419C131.792 15.419 131.486 15.946 131.486 16.235C131.486 16.66 131.775 16.898 133.441 17.153L133.662 17.17Z" fill="white"/>
<path d="M143.32 15.623V19.006V19.21C143.32 20.587 143.932 20.4 146.414 20.264V22.78C146.414 22.78 145.904 22.95 143.32 22.95C140.719 22.95 140.719 20.825 140.719 19.448V15.623H139.461V13.447H140.719V10.693H143.32V13.447H146.414V15.623H143.32Z" fill="white"/>
</svg>
