<svg width="148" height="34" viewBox="0 0 148 34" fill="none" xmlns="http://www.w3.org/2000/svg">
<path d="M13.2425 10.3888C9.34974 6.60116 12.0312 0 17.4626 0C22.8939 0 25.5754 6.60116 21.6826 10.3888L17.4626 14.4947L13.2425 10.3888Z" fill="#CBEA7B"/>
<path d="M13.267 23.6112C9.37416 27.3988 12.0556 34 17.487 34C22.9184 34 25.5998 27.3988 21.707 23.6112L17.487 19.5053L13.267 23.6112Z" fill="#CBEA7B"/>
<path d="M10.8634 21.2321C7.07577 25.1249 0.474609 22.4434 0.474609 17.012C0.474609 11.5807 7.07577 8.89919 10.8634 12.792L14.9693 17.012L10.8634 21.2321Z" fill="#CBEA7B"/>
<path d="M24.0859 21.2077C27.8734 25.1005 34.4746 22.419 34.4746 16.9876C34.4746 11.5562 27.8734 8.87477 24.0859 12.7676L19.9799 16.9876L24.0859 21.2077Z" fill="#CBEA7B"/>
<path d="M49.5845 19.601V11.05H52.1685V22.95H48.4455L43.2265 14.416H42.9375V22.95H40.3535V11.05H43.8385V11.067H44.0765L49.2785 19.601H49.5845Z" fill="white"/>
<path d="M61.5695 13.413H64.1535V22.95H61.5695V21.556H61.4505C60.8385 22.406 59.9715 22.95 58.2545 22.95C54.2255 22.95 54.1235 19.584 54.1235 18.19V13.413H56.6905V18.19C56.6905 18.938 56.5205 20.74 59.0025 20.74C61.2295 20.74 61.5695 19.312 61.5695 18.02V13.413Z" fill="white"/>
<path d="M69.6275 15.623V19.006V19.21C69.6275 20.587 70.2395 20.4 72.7215 20.264V22.78C72.7215 22.78 72.2115 22.95 69.6275 22.95C67.0265 22.95 67.0265 20.825 67.0265 19.448V15.623H65.7685V13.447H67.0265V10.693H69.6275V13.447H72.7215V15.623H69.6275Z" fill="white"/>
<path d="M79.9996 13.413C80.6796 13.413 81.2406 13.566 81.6826 13.668L81.2746 16.099C81.0366 16.031 80.3736 15.895 79.5576 15.895C77.6366 15.895 77.0756 17.391 77.0756 18.683V22.95H74.4916V13.413H77.0756V14.824H77.2286C77.7726 13.906 78.3506 13.413 79.9996 13.413Z" fill="white"/>
<path d="M85.6324 22.95H83.0653V13.481H85.6324V22.95ZM85.6324 12.801H83.0653V10.489H85.6324V12.801Z" fill="white"/>
<path d="M91.2647 15.623V19.006V19.21C91.2647 20.587 91.8767 20.4 94.3587 20.264V22.78C94.3587 22.78 93.8487 22.95 91.2647 22.95C88.6637 22.95 88.6637 20.825 88.6637 19.448V15.623H87.4057V13.447H88.6637V10.693H91.2647V13.447H94.3587V15.623H91.2647Z" fill="white"/>
<path d="M98.646 22.95H96.079V13.481H98.646V22.95ZM98.646 12.801H96.079V10.489H98.646V12.801Z" fill="white"/>
<path d="M105.723 13.243C108.63 13.243 111.044 14.79 111.044 18.105C111.044 21.454 108.63 22.95 105.723 22.95C102.833 22.95 100.419 21.403 100.419 18.105C100.419 14.824 102.833 13.243 105.723 13.243ZM105.723 20.604C107.355 20.604 108.511 19.822 108.511 18.105C108.511 16.337 107.355 15.606 105.723 15.606C104.108 15.606 102.952 16.303 102.952 18.105C102.952 19.89 104.108 20.604 105.723 20.604Z" fill="white"/>
<path d="M118.677 13.413C122.706 13.413 122.808 16.796 122.808 18.19V22.95H120.241V18.19C120.241 17.442 120.394 15.64 117.929 15.64C115.685 15.64 115.362 17.068 115.362 18.36V22.95H112.778V13.413H115.362V14.824H115.481C116.093 13.974 116.96 13.413 118.677 13.413Z" fill="white"/>
<path d="M127.322 22.95H124.755V13.481H127.322V22.95ZM127.322 12.801H124.755V10.489H127.322V12.801Z" fill="white"/>
<path d="M133.995 17.17C136.154 17.493 138.602 17.867 138.602 20.128C138.602 22.491 136.902 22.95 133.978 22.95C131.819 22.95 130.34 22.559 129.575 21.794C128.912 21.131 128.912 20.332 128.929 19.839V19.652H131.581V19.737C131.581 20.553 132.193 20.927 133.91 20.927C134.947 20.927 135.933 20.791 135.933 20.162C135.933 19.448 135.015 19.312 133.978 19.193C133.842 19.176 133.706 19.159 133.57 19.142C130.833 18.785 129.133 18.173 129.133 16.269C129.133 14.943 129.898 13.362 133.57 13.362C137.514 13.362 138.347 15.113 138.347 16.575V16.66H135.712V16.575C135.712 15.827 135.066 15.419 133.57 15.419C132.125 15.419 131.819 15.946 131.819 16.235C131.819 16.66 132.108 16.898 133.774 17.153L133.995 17.17Z" fill="white"/>
<path d="M143.653 15.623V19.006V19.21C143.653 20.587 144.265 20.4 146.747 20.264V22.78C146.747 22.78 146.237 22.95 143.653 22.95C141.052 22.95 141.052 20.825 141.052 19.448V15.623H139.794V13.447H141.052V10.693H143.653V13.447H146.747V15.623H143.653Z" fill="white"/>
</svg>
