<svg width="193" height="55" viewBox="0 0 193 55" fill="none" xmlns="http://www.w3.org/2000/svg">
<rect x="0.5" y="0.5" width="192" height="54" rx="5.5" stroke="#2C5446"/>
<path fill-rule="evenodd" clip-rule="evenodd" d="M15.5 20C15.5 18.3431 16.8431 17 18.5 17H19.8716C20.732 17 21.482 17.5856 21.6906 18.4202L22.7964 22.8434C22.9794 23.5753 22.7059 24.3455 22.1024 24.7982L20.8088 25.7684C20.6745 25.8691 20.6453 26.0167 20.683 26.1197C21.8185 29.2195 24.2805 31.6815 27.3803 32.817C27.4833 32.8547 27.6309 32.8255 27.7316 32.6912L28.7018 31.3976C29.1545 30.7941 29.9247 30.5206 30.6566 30.7036L35.0798 31.8094C35.9144 32.018 36.5 32.768 36.5 33.6284V35C36.5 36.6569 35.1569 38 33.5 38H31.25C22.5515 38 15.5 30.9485 15.5 22.25V20Z" fill="#CBEA7B"/>
<path d="M48.464 33.1V29.356H44.72V27.844H48.464V24.1H49.976V27.844H53.72V29.356H49.976V33.1H48.464ZM57.4564 34L60.1474 29.356C59.5174 29.542 58.8964 29.575 58.2844 29.455C57.6784 29.329 57.1264 29.083 56.6284 28.717C56.1304 28.345 55.7314 27.877 55.4314 27.313C55.1314 26.749 54.9814 26.122 54.9814 25.432C54.9814 24.844 55.0924 24.292 55.3144 23.776C55.5364 23.26 55.8424 22.807 56.2324 22.417C56.6224 22.027 57.0724 21.721 57.5824 21.499C58.0984 21.277 58.6504 21.166 59.2384 21.166C60.0184 21.166 60.7264 21.358 61.3624 21.742C62.0044 22.126 62.5174 22.642 62.9014 23.29C63.2914 23.932 63.4864 24.646 63.4864 25.432C63.4864 25.858 63.4324 26.236 63.3244 26.566C63.2224 26.89 63.0664 27.244 62.8564 27.628L59.2024 34H57.4564ZM59.2204 28.177C59.7544 28.177 60.2284 28.051 60.6424 27.799C61.0624 27.541 61.3894 27.202 61.6234 26.782C61.8634 26.362 61.9834 25.912 61.9834 25.432C61.9834 24.91 61.8574 24.442 61.6054 24.028C61.3534 23.608 61.0174 23.278 60.5974 23.038C60.1774 22.792 59.7244 22.669 59.2384 22.669C58.7044 22.669 58.2274 22.798 57.8074 23.056C57.3934 23.314 57.0664 23.656 56.8264 24.082C56.5924 24.502 56.4754 24.952 56.4754 25.432C56.4754 25.936 56.5954 26.398 56.8354 26.818C57.0814 27.232 57.4114 27.562 57.8254 27.808C58.2454 28.054 58.7104 28.177 59.2204 28.177ZM66.1545 34V22.912H64.7415L65.1645 21.4H67.6665V34H66.1545ZM76.4408 34L79.1318 29.356C78.5018 29.542 77.8808 29.575 77.2688 29.455C76.6628 29.329 76.1108 29.083 75.6128 28.717C75.1148 28.345 74.7158 27.877 74.4158 27.313C74.1158 26.749 73.9658 26.122 73.9658 25.432C73.9658 24.844 74.0768 24.292 74.2988 23.776C74.5208 23.26 74.8268 22.807 75.2168 22.417C75.6068 22.027 76.0568 21.721 76.5668 21.499C77.0828 21.277 77.6348 21.166 78.2228 21.166C79.0028 21.166 79.7108 21.358 80.3468 21.742C80.9888 22.126 81.5018 22.642 81.8858 23.29C82.2758 23.932 82.4708 24.646 82.4708 25.432C82.4708 25.858 82.4168 26.236 82.3088 26.566C82.2068 26.89 82.0508 27.244 81.8408 27.628L78.1868 34H76.4408ZM78.2048 28.177C78.7388 28.177 79.2128 28.051 79.6268 27.799C80.0468 27.541 80.3738 27.202 80.6078 26.782C80.8478 26.362 80.9678 25.912 80.9678 25.432C80.9678 24.91 80.8418 24.442 80.5898 24.028C80.3378 23.608 80.0018 23.278 79.5818 23.038C79.1618 22.792 78.7088 22.669 78.2228 22.669C77.6888 22.669 77.2118 22.798 76.7918 23.056C76.3778 23.314 76.0508 23.656 75.8108 24.082C75.5768 24.502 75.4598 24.952 75.4598 25.432C75.4598 25.936 75.5798 26.398 75.8198 26.818C76.0658 27.232 76.3958 27.562 76.8098 27.808C77.2298 28.054 77.6948 28.177 78.2048 28.177ZM85.1389 34V22.912H83.7259L84.1489 21.4H86.6509V34H85.1389ZM92.8649 34.234C92.1149 34.234 91.4309 34.063 90.8129 33.721C90.2009 33.379 89.7119 32.923 89.3459 32.353C88.9859 31.777 88.8059 31.141 88.8059 30.445C88.8059 29.797 88.9769 29.203 89.3189 28.663C89.6609 28.117 90.1079 27.685 90.6599 27.367C90.2099 27.079 89.8379 26.698 89.5439 26.224C89.2559 25.744 89.1119 25.225 89.1119 24.667C89.1119 24.019 89.2799 23.431 89.6159 22.903C89.9579 22.375 90.4109 21.955 90.9749 21.643C91.5449 21.325 92.1749 21.166 92.8649 21.166C93.5549 21.166 94.1819 21.325 94.7459 21.643C95.3159 21.955 95.7689 22.375 96.1049 22.903C96.4469 23.431 96.6179 24.019 96.6179 24.667C96.6179 25.225 96.4739 25.744 96.1859 26.224C95.8979 26.698 95.5229 27.079 95.0609 27.367C95.6309 27.685 96.0839 28.117 96.4199 28.663C96.7619 29.203 96.9329 29.797 96.9329 30.445C96.9329 31.135 96.7499 31.768 96.3839 32.344C96.0179 32.92 95.5259 33.379 94.9079 33.721C94.2959 34.063 93.6149 34.234 92.8649 34.234ZM92.8649 32.722C93.3209 32.722 93.7319 32.62 94.0979 32.416C94.4699 32.212 94.7669 31.939 94.9889 31.597C95.2109 31.249 95.3219 30.865 95.3219 30.445C95.3219 30.019 95.2109 29.635 94.9889 29.293C94.7669 28.951 94.4699 28.678 94.0979 28.474C93.7319 28.27 93.3209 28.168 92.8649 28.168C92.4149 28.168 92.0039 28.27 91.6319 28.474C91.2599 28.678 90.9629 28.951 90.7409 29.293C90.5189 29.635 90.4079 30.019 90.4079 30.445C90.4079 30.865 90.5189 31.249 90.7409 31.597C90.9629 31.939 91.2599 32.212 91.6319 32.416C92.0039 32.62 92.4149 32.722 92.8649 32.722ZM92.8649 26.656C93.2609 26.656 93.6209 26.566 93.9449 26.386C94.2689 26.206 94.5269 25.966 94.7189 25.666C94.9169 25.366 95.0159 25.033 95.0159 24.667C95.0159 24.295 94.9169 23.962 94.7189 23.668C94.5269 23.368 94.2689 23.128 93.9449 22.948C93.6209 22.768 93.2609 22.678 92.8649 22.678C92.4689 22.678 92.1089 22.768 91.7849 22.948C91.4609 23.128 91.1999 23.368 91.0019 23.668C90.8099 23.962 90.7139 24.295 90.7139 24.667C90.7139 25.033 90.8099 25.366 91.0019 25.666C91.1999 25.966 91.4609 26.206 91.7849 26.386C92.1089 26.566 92.4689 26.656 92.8649 26.656ZM99.7814 34V22.912H98.3684L98.7914 21.4H101.293V34H99.7814ZM107.193 34.234C106.431 34.234 105.753 34.063 105.159 33.721C104.571 33.373 104.109 32.911 103.773 32.335C103.437 31.753 103.269 31.108 103.269 30.4H104.781C104.781 30.826 104.88 31.216 105.078 31.57C105.276 31.918 105.555 32.197 105.915 32.407C106.275 32.617 106.701 32.722 107.193 32.722C107.619 32.722 108.015 32.617 108.381 32.407C108.753 32.197 109.053 31.918 109.281 31.57C109.509 31.216 109.623 30.826 109.623 30.4C109.623 29.866 109.485 29.422 109.209 29.068C108.939 28.708 108.561 28.441 108.075 28.267C107.595 28.087 107.046 27.997 106.428 27.997V26.782C107.28 26.782 107.961 26.605 108.471 26.251C108.987 25.897 109.245 25.375 109.245 24.685C109.245 24.319 109.146 23.983 108.948 23.677C108.75 23.371 108.489 23.128 108.165 22.948C107.847 22.762 107.505 22.669 107.139 22.669C106.767 22.669 106.41 22.762 106.068 22.948C105.726 23.128 105.447 23.371 105.231 23.677C105.015 23.983 104.907 24.319 104.907 24.685H103.395C103.395 24.199 103.494 23.743 103.692 23.317C103.896 22.891 104.172 22.516 104.52 22.192C104.874 21.868 105.273 21.616 105.717 21.436C106.161 21.25 106.629 21.157 107.121 21.157C107.763 21.157 108.36 21.316 108.912 21.634C109.464 21.952 109.908 22.378 110.244 22.912C110.586 23.446 110.757 24.037 110.757 24.685C110.757 25.267 110.61 25.804 110.316 26.296C110.022 26.788 109.623 27.133 109.119 27.331C109.557 27.481 109.926 27.715 110.226 28.033C110.526 28.345 110.751 28.705 110.901 29.113C111.057 29.521 111.135 29.95 111.135 30.4C111.135 31.102 110.952 31.744 110.586 32.326C110.226 32.908 109.746 33.373 109.146 33.721C108.552 34.063 107.901 34.234 107.193 34.234ZM116.72 34V32.659C117.182 32.245 117.701 31.783 118.277 31.273C118.853 30.757 119.426 30.22 119.996 29.662C120.572 29.098 121.1 28.54 121.58 27.988C122.06 27.436 122.447 26.914 122.741 26.422C123.035 25.924 123.182 25.489 123.182 25.117C123.182 24.673 123.074 24.268 122.858 23.902C122.642 23.53 122.351 23.233 121.985 23.011C121.625 22.789 121.223 22.678 120.779 22.678C120.335 22.678 119.927 22.789 119.555 23.011C119.189 23.233 118.895 23.53 118.673 23.902C118.457 24.268 118.349 24.673 118.349 25.117H116.837C116.837 24.379 117.017 23.713 117.377 23.119C117.737 22.519 118.214 22.045 118.808 21.697C119.402 21.343 120.059 21.166 120.779 21.166C121.499 21.166 122.153 21.343 122.741 21.697C123.335 22.051 123.809 22.528 124.163 23.128C124.517 23.722 124.694 24.385 124.694 25.117C124.694 25.537 124.592 25.99 124.388 26.476C124.184 26.956 123.905 27.451 123.551 27.961C123.197 28.471 122.795 28.987 122.345 29.509C121.895 30.025 121.421 30.535 120.923 31.039C120.425 31.543 119.93 32.026 119.438 32.488H124.856V34H116.72ZM130.396 34.234C129.634 34.234 128.956 34.063 128.362 33.721C127.774 33.373 127.312 32.911 126.976 32.335C126.64 31.753 126.472 31.108 126.472 30.4H127.984C127.984 30.826 128.083 31.216 128.281 31.57C128.479 31.918 128.758 32.197 129.118 32.407C129.478 32.617 129.904 32.722 130.396 32.722C130.822 32.722 131.218 32.617 131.584 32.407C131.956 32.197 132.256 31.918 132.484 31.57C132.712 31.216 132.826 30.826 132.826 30.4C132.826 29.866 132.688 29.422 132.412 29.068C132.142 28.708 131.764 28.441 131.278 28.267C130.798 28.087 130.249 27.997 129.631 27.997V26.782C130.483 26.782 131.164 26.605 131.674 26.251C132.19 25.897 132.448 25.375 132.448 24.685C132.448 24.319 132.349 23.983 132.151 23.677C131.953 23.371 131.692 23.128 131.368 22.948C131.05 22.762 130.708 22.669 130.342 22.669C129.97 22.669 129.613 22.762 129.271 22.948C128.929 23.128 128.65 23.371 128.434 23.677C128.218 23.983 128.11 24.319 128.11 24.685H126.598C126.598 24.199 126.697 23.743 126.895 23.317C127.099 22.891 127.375 22.516 127.723 22.192C128.077 21.868 128.476 21.616 128.92 21.436C129.364 21.25 129.832 21.157 130.324 21.157C130.966 21.157 131.563 21.316 132.115 21.634C132.667 21.952 133.111 22.378 133.447 22.912C133.789 23.446 133.96 24.037 133.96 24.685C133.96 25.267 133.813 25.804 133.519 26.296C133.225 26.788 132.826 27.133 132.322 27.331C132.76 27.481 133.129 27.715 133.429 28.033C133.729 28.345 133.954 28.705 134.104 29.113C134.26 29.521 134.338 29.95 134.338 30.4C134.338 31.102 134.155 31.744 133.789 32.326C133.429 32.908 132.949 33.373 132.349 33.721C131.755 34.063 131.104 34.234 130.396 34.234ZM139.923 34V32.659C140.385 32.245 140.904 31.783 141.48 31.273C142.056 30.757 142.629 30.22 143.199 29.662C143.775 29.098 144.303 28.54 144.783 27.988C145.263 27.436 145.65 26.914 145.944 26.422C146.238 25.924 146.385 25.489 146.385 25.117C146.385 24.673 146.277 24.268 146.061 23.902C145.845 23.53 145.554 23.233 145.188 23.011C144.828 22.789 144.426 22.678 143.982 22.678C143.538 22.678 143.13 22.789 142.758 23.011C142.392 23.233 142.098 23.53 141.876 23.902C141.66 24.268 141.552 24.673 141.552 25.117H140.04C140.04 24.379 140.22 23.713 140.58 23.119C140.94 22.519 141.417 22.045 142.011 21.697C142.605 21.343 143.262 21.166 143.982 21.166C144.702 21.166 145.356 21.343 145.944 21.697C146.538 22.051 147.012 22.528 147.366 23.128C147.72 23.722 147.897 24.385 147.897 25.117C147.897 25.537 147.795 25.99 147.591 26.476C147.387 26.956 147.108 27.451 146.754 27.961C146.4 28.471 145.998 28.987 145.548 29.509C145.098 30.025 144.624 30.535 144.126 31.039C143.628 31.543 143.133 32.026 142.641 32.488H148.059V34H139.923ZM153.599 34.234C152.837 34.234 152.159 34.063 151.565 33.721C150.977 33.373 150.515 32.911 150.179 32.335C149.843 31.753 149.675 31.108 149.675 30.4H151.187C151.187 30.826 151.286 31.216 151.484 31.57C151.682 31.918 151.961 32.197 152.321 32.407C152.681 32.617 153.107 32.722 153.599 32.722C154.025 32.722 154.421 32.617 154.787 32.407C155.159 32.197 155.459 31.918 155.687 31.57C155.915 31.216 156.029 30.826 156.029 30.4C156.029 29.866 155.891 29.422 155.615 29.068C155.345 28.708 154.967 28.441 154.481 28.267C154.001 28.087 153.452 27.997 152.834 27.997V26.782C153.686 26.782 154.367 26.605 154.877 26.251C155.393 25.897 155.651 25.375 155.651 24.685C155.651 24.319 155.552 23.983 155.354 23.677C155.156 23.371 154.895 23.128 154.571 22.948C154.253 22.762 153.911 22.669 153.545 22.669C153.173 22.669 152.816 22.762 152.474 22.948C152.132 23.128 151.853 23.371 151.637 23.677C151.421 23.983 151.313 24.319 151.313 24.685H149.801C149.801 24.199 149.9 23.743 150.098 23.317C150.302 22.891 150.578 22.516 150.926 22.192C151.28 21.868 151.679 21.616 152.123 21.436C152.567 21.25 153.035 21.157 153.527 21.157C154.169 21.157 154.766 21.316 155.318 21.634C155.87 21.952 156.314 22.378 156.65 22.912C156.992 23.446 157.163 24.037 157.163 24.685C157.163 25.267 157.016 25.804 156.722 26.296C156.428 26.788 156.029 27.133 155.525 27.331C155.963 27.481 156.332 27.715 156.632 28.033C156.932 28.345 157.157 28.705 157.307 29.113C157.463 29.521 157.541 29.95 157.541 30.4C157.541 31.102 157.358 31.744 156.992 32.326C156.632 32.908 156.152 33.373 155.552 33.721C154.958 34.063 154.307 34.234 153.599 34.234ZM163.473 34.234C162.723 34.234 162.051 34.066 161.457 33.73C160.863 33.388 160.353 32.917 159.927 32.317C159.501 31.717 159.177 31.024 158.955 30.238C158.733 29.446 158.622 28.6 158.622 27.7C158.622 26.8 158.733 25.954 158.955 25.162C159.177 24.37 159.501 23.677 159.927 23.083C160.353 22.483 160.863 22.015 161.457 21.679C162.051 21.337 162.723 21.166 163.473 21.166C164.217 21.166 164.886 21.337 165.48 21.679C166.08 22.015 166.587 22.483 167.001 23.083C167.421 23.677 167.742 24.37 167.964 25.162C168.192 25.954 168.306 26.8 168.306 27.7C168.306 28.6 168.192 29.446 167.964 30.238C167.742 31.024 167.421 31.717 167.001 32.317C166.587 32.917 166.08 33.388 165.48 33.73C164.886 34.066 164.217 34.234 163.473 34.234ZM163.473 32.722C164.223 32.722 164.85 32.491 165.354 32.029C165.864 31.561 166.245 30.946 166.497 30.184C166.749 29.422 166.875 28.594 166.875 27.7C166.875 26.758 166.743 25.909 166.479 25.153C166.221 24.391 165.837 23.788 165.327 23.344C164.823 22.9 164.205 22.678 163.473 22.678C162.897 22.678 162.393 22.813 161.961 23.083C161.535 23.353 161.181 23.722 160.899 24.19C160.617 24.658 160.404 25.195 160.26 25.801C160.122 26.401 160.053 27.034 160.053 27.7C160.053 28.594 160.182 29.425 160.44 30.193C160.698 30.955 161.079 31.567 161.583 32.029C162.093 32.491 162.723 32.722 163.473 32.722ZM171.855 34L174.546 29.356C173.916 29.542 173.295 29.575 172.683 29.455C172.077 29.329 171.525 29.083 171.027 28.717C170.529 28.345 170.13 27.877 169.83 27.313C169.53 26.749 169.38 26.122 169.38 25.432C169.38 24.844 169.491 24.292 169.713 23.776C169.935 23.26 170.241 22.807 170.631 22.417C171.021 22.027 171.471 21.721 171.981 21.499C172.497 21.277 173.049 21.166 173.637 21.166C174.417 21.166 175.125 21.358 175.761 21.742C176.403 22.126 176.916 22.642 177.3 23.29C177.69 23.932 177.885 24.646 177.885 25.432C177.885 25.858 177.831 26.236 177.723 26.566C177.621 26.89 177.465 27.244 177.255 27.628L173.601 34H171.855ZM173.619 28.177C174.153 28.177 174.627 28.051 175.041 27.799C175.461 27.541 175.788 27.202 176.022 26.782C176.262 26.362 176.382 25.912 176.382 25.432C176.382 24.91 176.256 24.442 176.004 24.028C175.752 23.608 175.416 23.278 174.996 23.038C174.576 22.792 174.123 22.669 173.637 22.669C173.103 22.669 172.626 22.798 172.206 23.056C171.792 23.314 171.465 23.656 171.225 24.082C170.991 24.502 170.874 24.952 170.874 25.432C170.874 25.936 170.994 26.398 171.234 26.818C171.48 27.232 171.81 27.562 172.224 27.808C172.644 28.054 173.109 28.177 173.619 28.177Z" fill="white"/>
</svg>
