<svg width="18" height="15" viewBox="0 0 18 15" fill="none" xmlns="http://www.w3.org/2000/svg">
<path fill-rule="evenodd" clip-rule="evenodd" d="M0.600097 7.50019C0.600097 7.00314 1.00304 6.60019 1.5001 6.60019L14.2656 6.60019L9.2763 1.84894C8.918 1.50443 8.90683 0.93469 9.25135 0.576396C9.59586 0.218101 10.1656 0.20693 10.5239 0.551444L17.1239 6.85144C17.3004 7.02113 17.4001 7.25538 17.4001 7.50019C17.4001 7.74501 17.3004 7.97926 17.1239 8.14894L10.5239 14.4489C10.1656 14.7935 9.59586 14.7823 9.25135 14.424C8.90683 14.0657 8.918 13.496 9.2763 13.1514L14.2656 8.40019L1.5001 8.40019C1.00304 8.40019 0.600097 7.99725 0.600097 7.50019Z" fill="white"/>
</svg>
